<?xml version="1.0" encoding="utf-8"?>
<!-- Generator: Adobe Illustrator 26.4.1, SVG Export Plug-In . SVG Version: 6.00 Build 0)  -->
<svg version="1.1" id="Calque_1" xmlns="http://www.w3.org/2000/svg" xmlns:xlink="http://www.w3.org/1999/xlink" x="0px" y="0px"
	 viewBox="0 0 32 32" style="enable-background:new 0 0 32 32;" xml:space="preserve">
<style type="text/css">
	.st0{fill:#FFED00;}
	.st1{fill:#FFFFFF;}
</style>
<circle class="st0" cx="16" cy="16" r="16"/>
<path class="st1" d="M6.2,22.1c-0.8-0.5-1.5-1.2-2-2.1s-0.8-1.9-0.8-2.9s0.3-2,0.8-2.9s1.2-1.5,2-2s1.7-0.7,2.7-0.7s1.5,0.2,2.1,0.6
	c0.7,0.4,1.2,1.1,1.5,1.9v-2.6h4.7v11.3h-4.7v-2.1c-0.7,1.5-2,2.2-3.6,2.2S7,22.5,6.2,22.1L6.2,22.1z M11.9,18.7
	c0.4-0.4,0.6-0.9,0.7-1.5V17c0-0.6-0.3-1.1-0.7-1.5s-0.9-0.6-1.5-0.6s-1.2,0.2-1.6,0.7c-0.4,0.4-0.7,1-0.7,1.6s0.2,1.1,0.7,1.6
	c0.4,0.4,1,0.6,1.6,0.6S11.5,19.2,11.9,18.7L11.9,18.7z"/>
<g>
	<path class="st1" d="M21.4,21.7c-0.7-0.8-1.1-1.8-1.1-3.1v-4.4h-1.4v-2.8h1.8l2.1-4.3h2.3v4.3h2.6v2.8h-2.6V18
		c0,0.4,0.1,0.7,0.4,0.9c0.2,0.2,0.6,0.3,1,0.3s0.8,0,1.1-0.3l0.2,3.2c-0.4,0.2-0.9,0.4-1.5,0.6c-0.6,0.1-1.2,0.2-1.7,0.2
		c-1.3,0-2.4-0.4-3.1-1.1L21.4,21.7z"/>
	<rect x="18.2" y="11.4" class="st1" width="9.4" height="2.8"/>
</g>
</svg>
